<?xml version="1.0" encoding="utf-8"?>
<!-- Generator: Adobe Illustrator 24.2.3, SVG Export Plug-In . SVG Version: 6.00 Build 0)  -->
<svg version="1.1" id="Layer_1" focusable="false" xmlns="http://www.w3.org/2000/svg" xmlns:xlink="http://www.w3.org/1999/xlink"
	 x="0px" y="0px" viewBox="0 0 510.2 512" style="enable-background:new 0 0 510.2 512;" xml:space="preserve">

<path d="M18.2,145h473.6c10.1,0,18.2-7.2,18.2-16V89c0-8.8-8.2-16-18.2-16H18.2C8.2,73,0,80.2,0,89v40C0,137.8,8.2,145,18.2,145z"/>

<path d="M18.2,305h473.6c10.1,0,18.2-7.2,18.2-16v-40c0-8.8-8.2-16-18.2-16H18.2C8.2,233,0,240.2,0,249v40C0,297.8,8.2,305,18.2,305
	z"/>

<path d="M18.2,465h473.6c10.1,0,18.2-7.2,18.2-16v-40c0-8.8-8.2-16-18.2-16H18.2C8.2,393,0,400.2,0,409v40C0,457.8,8.2,465,18.2,465
	z"/>
	
</svg>
