<svg width="21" height="20" viewBox="0 0 21 20" fill="none" xmlns="http://www.w3.org/2000/svg">
<path d="M6.54799 5.54998C7.00197 5.09524 7.31097 4.51614 7.43593 3.88585C7.5609 3.25556 7.49622 2.60237 7.25008 2.00882C7.00394 1.41527 6.58737 0.908011 6.05303 0.551134C5.51869 0.194258 4.89055 0.00378418 4.24799 0.00378418C3.60543 0.00378418 2.97729 0.194258 2.44294 0.551134C1.9086 0.908011 1.49204 1.41527 1.24589 2.00882C0.999751 2.60237 0.935076 3.25556 1.06004 3.88585C1.18501 4.51614 1.49401 5.09524 1.94799 5.54998C2.24985 5.85234 2.60836 6.09221 3.00302 6.25588C3.39768 6.41954 3.82074 6.50378 4.24799 6.50378C4.67524 6.50378 5.09829 6.41954 5.49295 6.25588C5.88761 6.09221 6.24613 5.85234 6.54799 5.54998ZM19.548 13.95C19.0933 13.496 18.5141 13.187 17.8839 13.062C17.2536 12.9371 16.6004 13.0017 16.0068 13.2479C15.4133 13.494 14.906 13.9106 14.5491 14.4449C14.1923 14.9793 14.0018 15.6074 14.0018 16.25C14.0018 16.8925 14.1923 17.5207 14.5491 18.055C14.906 18.5894 15.4133 19.0059 16.0068 19.2521C16.6004 19.4982 17.2536 19.5629 17.8839 19.4379C18.5141 19.313 19.0933 19.004 19.548 18.55C19.8503 18.2481 20.0902 17.8896 20.2539 17.4949C20.4176 17.1003 20.5018 16.6772 20.5018 16.25C20.5018 15.8227 20.4176 15.3997 20.2539 15.005C20.0902 14.6104 19.8503 14.2518 19.548 13.95ZM19.448 2.19798L18.3 1.04998C18.1491 0.898677 17.9699 0.778634 17.7725 0.696726C17.5752 0.614819 17.3636 0.572657 17.15 0.572657C16.9363 0.572657 16.7248 0.614819 16.5274 0.696726C16.3301 0.778634 16.1509 0.898677 16 1.04998L2.05099 15.003C1.89969 15.1538 1.77964 15.3331 1.69774 15.5304C1.61583 15.7278 1.57367 15.9393 1.57367 16.153C1.57367 16.3666 1.61583 16.5782 1.69774 16.7755C1.77964 16.9729 1.89969 17.1521 2.05099 17.303L3.19999 18.45C3.35085 18.6013 3.53009 18.7213 3.72743 18.8032C3.92476 18.8851 4.13633 18.9273 4.34999 18.9273C4.56365 18.9273 4.77521 18.8851 4.97255 18.8032C5.16989 18.7213 5.34912 18.6013 5.49999 18.45L19.449 4.49698C19.6003 4.34611 19.7203 4.16688 19.8022 3.96954C19.8841 3.7722 19.9263 3.56064 19.9263 3.34698C19.9263 3.13332 19.8841 2.92175 19.8022 2.72441C19.7203 2.52708 19.6003 2.34784 19.449 2.19698L19.448 2.19798Z" fill="#06C167"/>
</svg>
